<svg width="60" height="60" viewBox="0 0 60 60" fill="none" xmlns="http://www.w3.org/2000/svg">
<g clip-path="url(#clip0_140_11)">
<path fill-rule="evenodd" clip-rule="evenodd" d="M40 15C35.858 15 32.5 18.3579 32.5 22.5C32.5 26.6423 35.858 30 40 30C44.1423 30 47.5 26.6423 47.5 22.5C47.5 18.3579 44.1423 15 40 15ZM27.5 22.5C27.5 15.5964 33.0965 10 40 10C46.9035 10 52.5 15.5964 52.5 22.5C52.5 25.7983 51.2225 28.7982 49.1355 31.032C53.7377 32.531 57.294 35.4982 59.566 38.8322C60.3435 39.9732 60.0488 41.5285 58.9078 42.306C57.767 43.0835 56.2115 42.7887 55.434 41.6477C52.9947 38.0682 48.5445 35 42.5 35C32.915 35 27.5 42.6855 27.5 47.5C27.5 48.8807 26.3807 50 25 50C23.6193 50 22.5 48.8807 22.5 47.5C22.5 45.77 22.8962 43.925 23.6521 42.1063C23.4595 41.9828 23.2807 41.8308 23.1222 41.6505C21.0701 39.3155 17.8854 37.5 13.75 37.5C9.61462 37.5 6.42997 39.3155 4.37785 41.6505C3.46637 42.6875 1.88673 42.7893 0.849637 41.8778C-0.187452 40.9663 -0.289273 39.3867 0.622215 38.3495C2.02259 36.7562 3.7946 35.341 5.89312 34.3018C3.79972 32.2588 2.50002 29.4063 2.50002 26.25C2.50002 20.0368 7.53682 15 13.75 15C19.9632 15 25 20.0368 25 26.25C25 29.4063 23.7003 32.2588 21.607 34.3018C23.413 35.1963 24.9771 36.369 26.2707 37.6942C27.88 35.6647 29.9715 33.8455 32.4805 32.4863C29.4555 30.2048 27.5 26.5808 27.5 22.5ZM7.50002 26.25C7.50002 22.7982 10.2983 20 13.75 20C17.2018 20 20 22.7982 20 26.25C20 29.7017 17.2018 32.5 13.75 32.5C10.2983 32.5 7.50002 29.7017 7.50002 26.25Z" fill="#EC4D37"/>
</g>
<defs>
<clipPath id="clip0_140_11">
<rect width="60" height="60" fill="white"/>
</clipPath>
</defs>
</svg>
