<svg width="60" height="60" viewBox="0 0 60 60" fill="none" xmlns="http://www.w3.org/2000/svg">
<path d="M30 20V30L36.25 36.25" stroke="#EC4D37" stroke-width="3.75" stroke-linecap="round" stroke-linejoin="round"/>
<path d="M10.8446 17.1765L8.96965 17.186C8.9748 18.2141 9.80703 19.0463 10.8352 19.0515L10.8446 17.1765ZM17.1991 19.0835C18.2346 19.0887 19.0783 18.2534 19.0835 17.2179C19.0887 16.1824 18.2534 15.3387 17.2179 15.3335L17.1991 19.0835ZM12.6876 10.8032C12.6824 9.7677 11.8388 8.93245 10.8032 8.93765C9.7677 8.94287 8.93245 9.78655 8.93767 10.8221L12.6876 10.8032ZM9.375 30C9.375 28.9645 8.53552 28.125 7.5 28.125C6.46448 28.125 5.625 28.9645 5.625 30H9.375ZM42.1887 51.113C43.0852 50.5945 43.3915 49.4475 42.873 48.551C42.3545 47.6548 41.2075 47.3482 40.3113 47.867L42.1887 51.113ZM47.867 40.3113C47.3482 41.2075 47.6548 42.3545 48.551 42.873C49.4475 43.3915 50.5945 43.0852 51.113 42.1887L47.867 40.3113ZM12.8508 12.6781C12.1149 13.4067 12.109 14.5939 12.8376 15.3298C13.5662 16.0656 14.7534 16.0715 15.4892 15.343L12.8508 12.6781ZM47.1558 12.8446C37.6053 3.29415 22.1721 3.19745 12.6848 12.6848L15.3364 15.3364C23.3342 7.33863 36.393 7.3851 44.5043 15.4963L47.1558 12.8446ZM12.6848 12.6848L9.5188 15.8507L12.1704 18.5023L15.3364 15.3364L12.6848 12.6848ZM10.8352 19.0515L17.1991 19.0835L17.2179 15.3335L10.854 15.3015L10.8352 19.0515ZM12.7196 17.1671L12.6876 10.8032L8.93767 10.8221L8.96965 17.186L12.7196 17.1671ZM30 9.375C41.3908 9.375 50.625 18.6091 50.625 30H54.375C54.375 16.5381 43.462 5.625 30 5.625V9.375ZM30 50.625C18.6091 50.625 9.375 41.3908 9.375 30H5.625C5.625 43.462 16.5381 54.375 30 54.375V50.625ZM40.3113 47.867C37.2795 49.6207 33.7598 50.625 30 50.625V54.375C34.4368 54.375 38.6017 53.188 42.1887 51.113L40.3113 47.867ZM50.625 30C50.625 33.7598 49.6207 37.2795 47.867 40.3113L51.113 42.1887C53.188 38.6017 54.375 34.4368 54.375 30H50.625ZM15.4892 15.343C19.2177 11.6515 24.3411 9.375 30 9.375V5.625C23.3135 5.625 17.2528 8.31977 12.8508 12.6781L15.4892 15.343Z" fill="#EC4D37"/>
</svg>
