<svg width="60" height="60" viewBox="0 0 60 60" fill="none" xmlns="http://www.w3.org/2000/svg">
<path d="M50.779 31.6182C49.2685 37.256 48.513 40.0747 46.8007 41.903C45.4487 43.3465 43.699 44.3567 41.773 44.8057C41.5322 44.862 41.288 44.9052 41.0375 44.936C38.7497 45.2182 35.9585 44.4702 30.877 43.1087C25.2392 41.598 22.4204 40.8427 20.5922 39.1305C19.1486 37.7785 18.1384 36.0287 17.6893 34.1025C17.1205 31.663 17.8758 28.8442 19.3864 23.2066L20.6805 18.3769C20.8978 17.5661 21.0994 16.8136 21.2905 16.114C22.4282 11.9489 23.1927 9.65745 24.6588 8.09217C26.0107 6.64862 27.7605 5.63842 29.6867 5.18932C32.126 4.62052 34.945 5.37582 40.5827 6.88645C46.2203 8.39707 49.0392 9.15237 50.8675 10.8647C52.311 12.2167 53.3212 13.9664 53.7702 15.8926C54.1725 17.6177 53.9125 19.5326 53.1915 22.5" stroke="#EC4D37" stroke-width="3.75" stroke-linecap="round"/>
<path d="M8.18054 41.6175C9.69117 47.2553 10.4465 50.074 12.1588 51.9023C13.5108 53.3458 15.2605 54.356 17.1866 54.805C19.6261 55.3738 22.4449 54.6185 28.0827 53.108C33.7202 51.5973 36.5392 50.842 38.3675 49.1298C39.5997 47.9755 40.5162 46.5315 41.0375 44.9353M21.2905 16.1133C20.4092 16.3412 19.4435 16.5999 18.3769 16.8857C12.7392 18.3963 9.92037 19.1516 8.09217 20.8639C6.64862 22.216 5.63842 23.9657 5.18932 25.8918C4.78704 27.617 5.04707 29.5323 5.76819 32.5" stroke="#EC4D37" stroke-width="3.75" stroke-linecap="round" stroke-linejoin="round"/>
</svg>
