<svg width="44" height="44" viewBox="0 0 44 44" fill="none" xmlns="http://www.w3.org/2000/svg">
<g clip-path="url(#clip0_224_2)">
<path d="M16.6852 43.4335V28.8035H12.1495V22.0807H16.6852V19.184C16.6852 11.6948 20.0732 8.22432 27.4248 8.22432C28.16 8.22432 29.1757 8.30132 30.1162 8.41316C30.8206 8.48565 31.5195 8.60508 32.208 8.77066V14.8665C31.8099 14.8294 31.4106 14.8073 31.0108 14.8005C30.563 14.7889 30.115 14.7834 29.667 14.784C28.3708 14.784 27.3588 14.96 26.5962 15.3505C26.0834 15.6077 25.6524 16.0026 25.3513 16.4908C24.8783 17.2608 24.6657 18.315 24.6657 19.7028V22.0807H31.8505L31.1428 25.9362L30.6167 28.8035H24.6657V43.9193C35.5593 42.603 44 33.3282 44 22.0807C44 9.93116 34.1495 0.080658 22 0.080658C9.8505 0.080658 0 9.93116 0 22.0807C0 32.3987 7.10233 41.0557 16.6852 43.4335Z" fill="#1D1B1B"/>
</g>
<defs>
<clipPath id="clip0_224_2">
<rect width="44" height="44" fill="white"/>
</clipPath>
</defs>
</svg>
