<svg width="44" height="44" viewBox="0 0 44 44" fill="none" xmlns="http://www.w3.org/2000/svg">
<g clip-path="url(#clip0_317_2)">
<path d="M22.9624 0.0366667C25.3641 0 27.7474 0.0183333 30.1307 0C30.2774 2.805 31.2857 5.665 33.3391 7.645C35.3924 9.68 38.2891 10.615 41.1124 10.9267V18.315C38.4724 18.2233 35.8141 17.6733 33.4124 16.5367C32.3674 16.06 31.3957 15.455 30.4424 14.8317C30.4241 20.185 30.4607 25.5383 30.4057 30.8733C30.2591 33.44 29.4157 35.9883 27.9307 38.0967C25.5291 41.6167 21.3674 43.9083 17.0957 43.9817C14.4741 44.1283 11.8524 43.4133 9.61573 42.0933C5.91239 39.9117 3.30906 35.915 2.92406 31.625C2.8874 30.7083 2.86906 29.7917 2.90573 28.8933C3.23573 25.41 4.95906 22.0733 7.63573 19.8C10.6791 17.16 14.9324 15.895 18.9107 16.6467C18.9474 19.36 18.8374 22.0733 18.8374 24.7867C17.0224 24.2 14.8957 24.365 13.3007 25.465C12.1457 26.2167 11.2657 27.3717 10.8074 28.6733C10.4224 29.6083 10.5324 30.635 10.5507 31.625C10.9907 34.6317 13.8874 37.1617 16.9674 36.8867C19.0207 36.8683 20.9824 35.6767 22.0457 33.935C22.3941 33.33 22.7791 32.7067 22.7974 31.9917C22.9807 28.71 22.9074 25.4467 22.9257 22.165C22.9441 14.7767 22.9074 7.40667 22.9624 0.0366667Z" fill="#1D1B1B"/>
</g>
<defs>
<clipPath id="clip0_317_2">
<rect width="44" height="44" fill="white"/>
</clipPath>
</defs>
</svg>
