<svg width="44" height="44" viewBox="0 0 44 44" fill="none" xmlns="http://www.w3.org/2000/svg">
<g clip-path="url(#clip0_432_4)">
<path d="M21.8973 5.9889e-05C16.0804 0.027206 10.5109 2.35704 6.40731 6.4799C2.30369 10.6028 -6.33399e-05 16.183 1.30613e-09 22.0001C1.30614e-09 27.8348 2.31785 33.4306 6.44365 37.5564C10.5695 41.6822 16.1652 44.0001 22 44.0001C27.8348 44.0001 33.4305 41.6822 37.5563 37.5564C41.6821 33.4306 44 27.8348 44 22.0001C44 16.1653 41.6821 10.5695 37.5563 6.44371C33.4305 2.31791 27.8348 5.9889e-05 22 5.9889e-05C21.9658 -1.9963e-05 21.9316 -1.9963e-05 21.8973 5.9889e-05ZM30.9943 13.2441C31.1777 13.2404 31.5828 13.2862 31.8468 13.5007C32.0223 13.6531 32.1341 13.8657 32.1603 14.0966C32.1897 14.2671 32.2263 14.6576 32.197 14.9619C31.867 18.4416 30.4333 26.8822 29.7037 30.7781C29.3957 32.4281 28.7888 32.9799 28.2003 33.0331C26.9243 33.1522 25.9545 32.1897 24.717 31.3794C22.781 30.1089 21.6865 29.3187 19.8073 28.0794C17.6348 26.6494 19.0428 25.8611 20.2803 24.5777C20.6048 24.2404 26.2332 19.1199 26.3432 18.6561C26.356 18.5974 26.3688 18.3811 26.2405 18.2674C26.1122 18.1537 25.9215 18.1922 25.784 18.2234C25.5897 18.2674 22.4968 20.3134 16.5055 24.3559C15.6255 24.9609 14.8317 25.2542 14.1185 25.2359C13.3338 25.2212 11.8232 24.7941 10.6993 24.4292C9.32067 23.9801 8.22617 23.7436 8.3215 22.9827C8.371 22.5867 8.91733 22.1816 9.95867 21.7672C16.3717 18.9732 20.647 17.1307 22.7883 16.2416C28.897 13.7006 30.1675 13.2587 30.9943 13.2441Z" fill="#1D1B1B"/>
</g>
<defs>
<clipPath id="clip0_432_4">
<rect width="44" height="44" fill="white"/>
</clipPath>
</defs>
</svg>
