<svg width="49" height="39" viewBox="0 0 49 39" fill="none" xmlns="http://www.w3.org/2000/svg">
<path d="M41.4805 3.92166C38.3038 2.46343 34.9512 1.42357 31.5068 0.828128C31.4755 0.822291 31.4432 0.826469 31.4144 0.840068C31.3856 0.853668 31.3619 0.875995 31.3465 0.903874C30.9157 1.67011 30.4386 2.66951 30.1046 3.45494C26.3383 2.89103 22.5913 2.89103 18.9024 3.45494C18.5684 2.65195 18.0739 1.67011 17.6412 0.903874C17.6252 0.87663 17.6013 0.854849 17.5728 0.841373C17.5442 0.827898 17.5122 0.823353 17.481 0.828332C14.0362 1.42239 10.6834 2.46216 7.50701 3.92146C7.47984 3.93307 7.45694 3.95283 7.44147 3.97801C1.08903 13.4685 -0.651283 22.7256 0.202541 31.868C0.204956 31.8904 0.211838 31.9121 0.222779 31.9317C0.233721 31.9514 0.2485 31.9687 0.266241 31.9825C4.45737 35.0605 8.51723 36.9291 12.5017 38.1676C12.5327 38.1768 12.5658 38.1764 12.5965 38.1663C12.6272 38.1562 12.6542 38.137 12.6737 38.1112C13.6161 36.8241 14.4562 35.4668 15.1767 34.0397C15.1866 34.0202 15.1923 33.9988 15.1933 33.9769C15.1944 33.955 15.1907 33.9331 15.1827 33.9127C15.1747 33.8924 15.1624 33.8739 15.1468 33.8586C15.1311 33.8433 15.1124 33.8315 15.0918 33.8239C13.759 33.3184 12.4901 32.702 11.2694 32.0021C11.2471 31.9891 11.2284 31.9707 11.215 31.9487C11.2015 31.9267 11.1936 31.9017 11.1921 31.8759C11.1905 31.8501 11.1954 31.8244 11.2062 31.8009C11.2169 31.7775 11.2333 31.757 11.2539 31.7414C11.5107 31.5489 11.7678 31.3488 12.013 31.1465C12.0348 31.1285 12.0611 31.117 12.0891 31.1132C12.1171 31.1094 12.1456 31.1135 12.1714 31.125C20.1907 34.7864 28.8722 34.7864 36.7968 31.125C36.8226 31.1128 36.8513 31.1081 36.8797 31.1115C36.9081 31.1149 36.9349 31.1263 36.957 31.1444C37.2024 31.3466 37.4593 31.5489 37.7182 31.7414C37.7388 31.7569 37.7553 31.7772 37.7662 31.8005C37.7771 31.8239 37.7821 31.8495 37.7808 31.8753C37.7794 31.901 37.7718 31.926 37.7585 31.9481C37.7453 31.9702 37.7268 31.9887 37.7047 32.0019C36.4835 32.7152 35.2043 33.324 33.8806 33.8219C33.8601 33.8297 33.8414 33.8418 33.8259 33.8574C33.8103 33.873 33.7982 33.8917 33.7904 33.9122C33.7825 33.9328 33.7791 33.9548 33.7804 33.9767C33.7816 33.9987 33.7875 34.0202 33.7976 34.0397C34.5334 35.4648 35.3735 36.8221 36.2986 38.1092C36.3175 38.1357 36.3443 38.1556 36.3751 38.1661C36.406 38.1766 36.4393 38.1771 36.4705 38.1676C40.4742 36.9289 44.5341 35.0603 48.7252 31.9825C48.7432 31.9694 48.7583 31.9525 48.7693 31.9331C48.7803 31.9136 48.7871 31.8921 48.7891 31.8698C49.8107 21.3001 47.0778 12.119 41.5442 3.97985C41.5307 3.95341 41.5081 3.9329 41.4805 3.92166ZM16.3742 26.3012C13.9599 26.3012 11.9705 24.0845 11.9705 21.3624C11.9705 18.6404 13.9213 16.4238 16.3744 16.4238C18.8464 16.4238 20.8164 18.6598 20.7778 21.3626C20.7778 24.0845 18.827 26.3012 16.3742 26.3012ZM32.6561 26.3012C30.2418 26.3012 28.2524 24.0845 28.2524 21.3624C28.2524 18.6404 30.203 16.4238 32.6561 16.4238C35.1281 16.4238 37.0981 18.6598 37.0595 21.3626C37.0595 24.0845 35.1281 26.3012 32.6561 26.3012Z" fill="#1D1B1B"/>
</svg>
